<svg width="25" height="24" viewBox="0 0 25 24" fill="none" xmlns="http://www.w3.org/2000/svg">
<path d="M9.31 2L5.69 5.63" stroke="#B7B7B7" stroke-width="1.5" stroke-miterlimit="10" stroke-linecap="round" stroke-linejoin="round"/>
<path d="M15.69 2L19.31 5.63" stroke="#B7B7B7" stroke-width="1.5" stroke-miterlimit="10" stroke-linecap="round" stroke-linejoin="round"/>
<path d="M2.5 7.85001C2.5 6.00001 3.49 5.85001 4.72 5.85001H20.28C21.51 5.85001 22.5 6.00001 22.5 7.85001C22.5 10 21.51 9.85001 20.28 9.85001H4.72C3.49 9.85001 2.5 10 2.5 7.85001Z" stroke="#B7B7B7" stroke-width="1.5"/>
<path d="M10.26 14V17.55" stroke="#B7B7B7" stroke-width="1.5" stroke-linecap="round"/>
<path d="M14.86 14V17.55" stroke="#B7B7B7" stroke-width="1.5" stroke-linecap="round"/>
<path d="M4 10L5.41 18.64C5.73 20.58 6.5 22 9.36 22H15.39C18.5 22 18.96 20.64 19.32 18.76L21 10" stroke="#B7B7B7" stroke-width="1.5" stroke-linecap="round"/>
</svg>
