<svg width="23" height="22" viewBox="0 0 23 22" fill="none" xmlns="http://www.w3.org/2000/svg">
<path d="M22.4667 21.1515L21.0137 16.7923C20.5613 15.4351 19.4127 14.3993 18.0162 14.0889L14.2156 13.2443V11.6129C15.8641 10.6678 16.9771 8.89034 16.9771 6.85779V4.19274C16.9771 3.54688 16.7637 2.9066 16.3761 2.38986L16.3733 2.38607C15.8828 1.73312 14.352 -2.28882e-05 11.5004 -2.28882e-05C8.64868 -2.28882e-05 7.11804 1.73196 6.62669 2.38607L6.62386 2.38986C6.23632 2.9066 6.0229 3.54688 6.0229 4.19274V6.85779C6.0229 8.89034 7.13587 10.6678 8.78437 11.6129V13.2443L4.98383 14.0889C3.5873 14.3993 2.4387 15.4351 1.98628 16.7923L0.533253 21.1515C0.420675 21.4892 0.603206 21.8542 0.940898 21.9668C1.27868 22.0793 1.64361 21.8968 1.75619 21.5591L3.20922 17.1999C3.51924 16.2698 4.30643 15.5599 5.26351 15.3473L6.02294 15.1785V18.0553C5.22136 18.3252 4.64223 19.0833 4.64223 19.9747C4.64223 21.0914 5.55076 22 6.66747 22C7.78419 22 8.69272 21.0914 8.69272 19.9747C8.69272 19.0833 8.11358 18.3252 7.312 18.0553V14.892L9.1136 14.4917L10.9473 17.5449C11.0638 17.7391 11.2736 17.8578 11.5 17.8578C11.7264 17.8578 11.9362 17.739 12.0527 17.5449L13.8848 14.4914L15.688 14.8921V16.6457C15.047 16.8011 13.6169 17.5274 13.6169 19.2844V21.3554C13.6169 21.7114 13.9055 22 14.2614 22H14.9518C15.3078 22 15.5963 21.7114 15.5963 21.3554C15.5963 20.9995 15.3078 20.7109 14.9518 20.7109H14.906V19.2844C14.906 18.4963 15.5437 17.8578 16.3325 17.8578C17.1191 17.8578 17.7591 18.4978 17.7591 19.2844V20.7109H17.7133C17.3573 20.7109 17.0687 20.9995 17.0687 21.3554C17.0687 21.7114 17.3573 22 17.7133 22H18.4036C18.7596 22 19.0481 21.7114 19.0481 21.3554V19.2844C19.0481 18.009 18.1643 16.9368 16.9771 16.6466V15.1785L17.7365 15.3472C18.6936 15.5599 19.4807 16.2698 19.7908 17.1999L21.2438 21.5591C21.3564 21.8967 21.7213 22.0792 22.0591 21.9667C22.3968 21.8542 22.5793 21.4892 22.4667 21.1515ZM7.40361 19.9747C7.40361 20.3806 7.07336 20.7109 6.66743 20.7109C6.2615 20.7109 5.93125 20.3806 5.93125 19.9747C5.93125 19.5688 6.2615 19.2385 6.66743 19.2385C7.07336 19.2385 7.40361 19.5688 7.40361 19.9747ZM7.31196 4.19274C7.31196 3.8251 7.43305 3.46068 7.65305 3.16604C7.65382 3.16506 7.65455 3.16407 7.65528 3.16308C8.04604 2.64208 9.23812 1.28904 11.5064 1.28904C13.7648 1.28904 14.9604 2.65063 15.3447 3.16308C15.3454 3.16407 15.3462 3.16506 15.3469 3.16604C15.5669 3.46064 15.688 3.8251 15.688 4.19274V5.30176L14.8007 4.4145C14.6668 4.28061 14.5283 4.14216 14.2614 4.14216C14.1613 4.14216 14.0627 4.16545 13.9731 4.21023C12.4246 4.98452 10.5755 4.98452 9.0268 4.21023C8.77866 4.08605 8.47895 4.13473 8.28284 4.33097L7.312 5.30082L7.31196 4.19274ZM7.31196 6.85779V6.72085C7.68218 6.61394 8.02159 6.41513 8.3017 6.1351C8.49321 5.94354 8.70759 5.72922 8.87809 5.55872C10.5494 6.25279 12.4505 6.25288 14.1219 5.55872L14.6983 6.13514C14.9784 6.41517 15.3178 6.61394 15.688 6.72085V6.85779C15.688 9.16706 13.8093 11.0458 11.5 11.0458C9.19073 11.0458 7.31196 9.16706 7.31196 6.85779ZM12.9266 13.5829L11.5 15.9605L10.0734 13.5829V12.146C10.5285 12.2689 11.0067 12.3348 11.5 12.3348C11.9933 12.3348 12.4715 12.2689 12.9266 12.146V13.5829Z" fill="white"/>
</svg>
