<svg width="150" height="106" viewBox="0 0 150 106" fill="none" xmlns="http://www.w3.org/2000/svg">
<g clip-path="url(#clip0_1_1079)">
<path d="M149.608 65.8528V64.577H118.476V64.6287L118.384 90.4722C118.367 95.2937 117.744 101.127 113.376 103.196C112.229 103.742 110.673 103.851 109.849 102.885C109.515 102.494 109.359 101.977 109.244 101.477C108.132 96.5178 110.264 90.4319 106.697 86.8057C105.089 85.1679 102.72 84.5759 100.473 84.0932C103.441 84.4782 106.518 83.099 108.385 80.7658C110.247 78.4326 110.915 75.2488 110.356 72.318C110.01 70.502 109.198 68.7377 107.815 67.5079C105.792 65.7091 102.916 65.3126 100.213 65.0827C93.4359 64.508 86.624 64.4851 79.8179 64.577H74.5447V65.6804H74.539V80.5647C74.539 80.5647 74.5274 80.5647 74.5159 80.5647V90.5928C74.5159 90.5928 74.5274 90.5928 74.539 90.5928V91.9491C74.539 94.2651 74.2566 96.2362 73.6976 97.8741C73.2769 99.0866 72.7063 100.121 71.9744 100.96C70.2628 102.937 67.8193 103.925 64.6323 103.925C61.4454 103.925 59.2381 102.977 58.0164 101.075C56.7946 99.1786 56.178 96.4488 56.178 92.8801V64.5713H44.8075V65.6747H44.8133V90.8974C44.8133 91.0296 44.8133 91.1618 44.8133 91.294H44.8018C44.8075 91.4893 44.819 91.7824 44.8133 92.1387C44.8018 94.1271 44.7614 98.035 42.2372 100.299C40.3239 102.018 37.8746 102.018 37.6268 102.012C35.0968 101.983 32.7052 100.466 31.2068 98.058C31.2068 98.0522 31.2068 98.0465 31.2068 98.0407C30.9302 97.5982 30.6823 97.1212 30.4749 96.6155L20.3492 76.835L30.3711 65.6804C30.7284 65.3126 31.08 64.9448 31.4373 64.577H29.328L28.2734 65.6804L11.8373 83.9323L11.3704 84.0472V64.577H0V105.851H11.3647V85.7368L11.8891 85.6219C15.3585 92.1675 19.139 99.2993 22.6083 105.851H32.4862C33.1201 105.971 39.8801 105.833 43.9834 101.38C45.2225 100.029 45.8737 98.5407 46.2195 97.3741C46.9168 98.92 47.8792 100.173 49.0952 101.132C51.9537 103.38 56.0915 105.845 61.5145 105.845C66.9375 105.845 70.7123 104.667 72.8446 102.299C73.1501 101.96 73.4325 101.604 73.6918 101.219C74.8847 99.4429 75.6339 97.15 75.9163 94.3283C75.9163 97.9718 75.9163 102.201 75.9163 105.856H87.2522C87.2637 100.351 87.2695 94.4777 87.2752 88.8228C87.281 87.4493 87.281 86.0931 87.281 84.7541C87.3098 84.7541 87.3444 84.7598 87.3732 84.7656C87.3732 84.7541 87.3732 84.7426 87.3732 84.7311H93.0267C94.5482 84.7311 95.5798 85.2311 96.1445 86.2425C96.2886 86.5011 96.4154 86.7999 96.5249 87.139C96.5307 87.2195 96.5307 87.3057 96.5307 87.3861C96.5883 87.524 96.6517 87.6562 96.6978 87.7999C96.8303 88.3861 96.911 89.0642 96.9571 89.8285C96.9802 89.8285 97.009 89.8285 97.032 89.8285C97.1992 92.2134 96.8592 94.6214 96.9283 97.0178C97.009 99.7705 97.7928 102.742 100.012 104.374C101.268 105.299 102.847 105.69 104.397 105.874C108.086 106.316 111.993 105.667 115.047 103.563C117.675 101.753 119.56 98.7763 119.813 95.6328L119.842 105.322H119.871V105.81H149.608V104.535H131.195C131.213 98.1384 131.23 91.7365 131.253 85.3345H148.283V83.8403H131.253V65.8643H149.608V65.8528ZM98.3172 74.9787C98.3172 77.5016 97.9484 79.4325 97.2222 80.8003C97.1646 80.9152 97.1012 81.0301 97.0378 81.1336C96.9341 81.3002 96.8303 81.4554 96.7151 81.6048C96.6171 81.7313 96.5076 81.8462 96.3923 81.9611C96.3405 82.0128 96.2886 82.0703 96.231 82.122C96.2079 82.145 96.1791 82.1623 96.1561 82.1852C95.8276 82.4783 95.4587 82.7197 95.0438 82.9266C95.0438 82.9266 95.0438 82.9381 95.0438 82.9438C95.015 82.9553 94.9919 82.9726 94.9631 82.9841C94.0814 83.4093 93.0325 83.622 91.7877 83.622H87.3617C87.3617 83.622 87.3617 83.599 87.3617 83.5817H87.2695V65.7264H91.8338C94.0871 65.7264 95.7354 66.2206 96.7612 67.2091C97.787 68.1975 98.3057 70.2261 98.3057 73.2834V74.973L98.3172 74.9787Z" fill="#1F1F11"/>
<path d="M19.4329 16.9531C20.3089 28.2399 20.3608 39.0324 19.8018 42.3713C19.4387 44.5551 18.6146 45.6527 18.0095 46.2561C17.1162 47.1411 15.8944 47.6066 14.6727 47.9227C10.6328 48.9629 4.47211 48.5951 0.391891 47.7388V53.9339C2.70863 54.4511 5.16944 54.6637 7.53804 54.566C10.2524 54.4568 13.0072 53.9166 15.3412 52.5259C18.2573 50.7904 20.2974 47.8365 21.4557 44.6528C22.1877 42.6356 22.908 40.3024 23.0752 34.6706C23.1904 30.8604 23.0867 23.3206 22.1531 16.9531H19.4272H19.4329Z" fill="#1F1F11"/>
<path d="M77.6687 45.5432L75.0851 48.1195C74.7115 48.4921 74.7115 49.0961 75.0851 49.4686L77.6687 52.045C78.0423 52.4175 78.648 52.4175 79.0216 52.045L81.6052 49.4686C81.9788 49.0961 81.9788 48.4921 81.6052 48.1195L79.0216 45.5432C78.648 45.1706 78.0423 45.1706 77.6687 45.5432Z" fill="#1F1F11"/>
<path d="M85.5405 45.5438L82.9569 48.1201C82.5833 48.4927 82.5833 49.0967 82.9569 49.4692L85.5405 52.0456C85.9141 52.4181 86.5198 52.4181 86.8934 52.0456L89.477 49.4692C89.8506 49.0967 89.8506 48.4927 89.477 48.1201L86.8934 45.5438C86.5198 45.1712 85.9141 45.1712 85.5405 45.5438Z" fill="#1F1F11"/>
<path d="M146.041 19.3438C144.024 17.4991 141.632 17.16 140.03 16.9531C133.656 16.9876 116.955 16.9186 110.581 16.9531C116.569 11.3557 122.556 5.5974 128.533 0C127.801 0 127.063 0 126.32 0.00574681L107.797 16.9474C107.936 18.8725 108.489 20.7173 109.457 21.4356C110.425 22.154 111.555 22.5103 112.852 22.5103H125.196C125.893 22.4873 126.925 22.4586 128.17 22.4356C130.544 22.3896 139.846 22.4241 140.088 22.5103C141.88 23.1309 142.427 25.7572 142.595 27.941H141.05C140.883 27.941 136.958 27.9468 136.791 27.9525C118.666 27.9812 100.553 27.9927 82.4343 28.0042V16.9531H81.1549V28.0042C70.9428 28.01 62.8112 28.0157 52.6049 28.0157C51.8442 28.0157 49.2854 28.0387 45.8449 27.987C45.793 27.1077 45.7123 26.2342 45.5913 25.3607C45.5625 25.1538 45.5337 24.9412 45.4991 24.7285C45.2801 23.2516 44.9746 21.5908 44.1217 20.4242C42.4216 18.091 39.69 16.7864 36.7912 16.9129C36.3647 16.9301 35.9382 16.9818 35.5233 17.0623C32.1692 17.7289 29.3511 20.292 27.9853 23.424C26.6194 26.5503 26.6021 30.165 27.5127 33.4522C28.0429 35.3659 28.9131 37.2451 30.3884 38.5726C32.3594 40.3541 35.1545 40.9231 37.817 40.992C39.4479 41.0323 41.0731 40.9173 42.704 40.8714C42.704 40.8886 42.704 40.9116 42.704 40.9288C42.6579 41.4978 42.6003 41.9805 42.5369 42.3655C42.4965 42.6069 42.4504 42.8368 42.3986 43.0551C42.3871 43.0954 42.3813 43.1356 42.3698 43.1758C42.0816 44.3309 41.6609 45.1182 41.2575 45.6642C41.246 45.6757 41.2402 45.6929 41.2287 45.7044C41.1768 45.7734 41.1249 45.8309 41.0731 45.8941C40.9693 46.0147 40.8656 46.1354 40.7504 46.2504C39.8571 47.1296 38.6296 47.5951 37.4136 47.9169C35.6501 48.3709 33.4889 48.5548 31.2644 48.5491H31.2241C29.0284 48.5376 26.7923 48.3422 24.8329 48.0376C24.7407 48.0204 24.6485 48.0089 24.5563 47.9917C24.4813 47.9744 24.4295 47.9629 24.3949 47.9572C23.8532 47.848 23.4152 47.7388 23.1558 47.6698L23.1385 47.7273V53.9281C24.9193 54.3189 26.775 54.543 28.6192 54.5775C29.1782 54.589 29.7314 54.5833 30.2847 54.5603C32.9991 54.4511 35.7596 53.9109 38.0878 52.5201C40.9982 50.7789 43.044 47.8307 44.2024 44.647C44.577 43.6241 44.9458 42.5092 45.2397 40.9288H45.7642C45.7642 40.9288 45.793 40.9288 45.8103 40.9288H52.1439C52.1439 40.9288 52.1554 40.9288 52.1554 40.9403C65.8137 40.9461 77.3225 40.9461 90.9809 40.9518H150.017V28.1307C149.965 27.8663 149.891 27.464 149.77 26.987C149.268 24.9067 148.496 21.5735 146.058 19.3438H146.041ZM42.7674 27.9525H41.1134C37.5749 27.9525 34.0422 27.9525 30.5037 27.964C30.8725 24.8952 33.4832 22.5562 36.5549 22.516C38.2492 22.493 39.8167 23.1654 40.9636 24.2975C41.9318 25.24 42.6003 26.5101 42.7732 27.941C42.7732 27.941 42.7732 27.9525 42.7732 27.9583L42.7674 27.9525Z" fill="#1F1F11"/>
</g>
<defs>
<clipPath id="clip0_1_1079">
<rect width="150" height="106" fill="white"/>
</clipPath>
</defs>
</svg>
