<svg width="41" height="48" viewBox="0 0 41 48" fill="none" xmlns="http://www.w3.org/2000/svg">
<path d="M15.5453 42.4545C16.9833 44.6627 19.5817 45.7669 23.3305 45.7669C27.0794 45.7669 29.9604 44.618 31.9735 42.3202C33.9867 40.0224 34.9908 36.5309 34.9908 31.8408V1.28318V0H41V1.28318H36.7668V31.3684C36.7668 36.9587 35.5105 41.1265 32.9927 43.8769C30.4801 46.6273 26.0299 48 19.6523 48C13.2748 48 8.40586 46.6919 5.04553 44.0808C1.69025 41.4647 0.0100911 36.9786 0.0100911 30.6273V1.28318H0V0H13.3808V1.28318V32.9251C13.3808 37.073 14.1023 40.2512 15.5402 42.4594" fill="white"/>
</svg>
