<svg width="20" height="20" viewBox="0 0 20 20" fill="none" xmlns="http://www.w3.org/2000/svg">
<path d="M19.4862 1.79133C19.0021 1.14941 18.2633 0.781289 17.4592 0.781289H17.1189V0.585977C17.1189 0.262383 16.8565 3.90625e-05 16.5329 3.90625e-05C16.2093 3.90625e-05 15.947 0.262383 15.947 0.585977V2.14848C15.947 2.47207 16.2093 2.73441 16.5329 2.73441C16.8565 2.73441 17.1189 2.47207 17.1189 2.14848V1.95316H17.4592C17.8922 1.95316 18.29 2.15141 18.5507 2.49703C18.8114 2.84266 18.8927 3.27965 18.7738 3.69594L17.2187 9.13898C16.7847 10.6579 15.3783 11.7188 13.7986 11.7188C12.219 11.7188 10.8126 10.6579 10.3786 9.13898L8.82354 3.6959C8.7046 3.27961 8.78592 2.84262 9.04662 2.49699C9.30732 2.15133 9.70516 1.95312 10.1381 1.95312H10.4784V2.14844C10.4784 2.47203 10.7408 2.73438 11.0643 2.73438C11.3879 2.73438 11.6503 2.47203 11.6503 2.14844V0.585938C11.6503 0.262344 11.3879 0 11.0643 0C10.7408 0 10.4784 0.262344 10.4784 0.585938V0.78125H10.1381C9.33407 0.78125 8.59523 1.14941 8.11106 1.79129C7.62685 2.4332 7.47588 3.24473 7.69677 4.01781L9.25189 9.46086C9.53649 10.457 10.1241 11.3132 10.9511 11.937C11.1283 12.0707 11.3132 12.1901 11.5039 12.2964L13.2128 16.3299V16.7528C13.2128 17.8971 12.2818 18.8281 11.1375 18.8281C9.99319 18.8281 9.06224 17.8971 9.06224 16.7528V12.7344C9.06224 10.882 7.55526 9.375 5.70296 9.375C3.85067 9.375 2.34368 10.882 2.34368 12.7344V14.1214C1.0081 14.3936 0 15.5773 0 16.9922C0 18.6076 1.31422 19.9219 2.9296 19.9219C4.54499 19.9219 5.85921 18.6076 5.85921 16.9922C5.85921 15.5774 4.85111 14.3937 3.51553 14.1214V12.7344C3.51553 11.5282 4.49683 10.5469 5.70296 10.5469C6.9091 10.5469 7.8904 11.5282 7.8904 12.7344V16.7528C7.8904 18.5433 9.34704 20 11.1375 20C12.928 20 14.3846 18.5433 14.3846 16.7528V16.3299L16.0935 12.2964C16.2842 12.1901 16.4691 12.0707 16.6463 11.937C17.4733 11.3132 18.0609 10.457 18.3455 9.46086L19.9006 4.01781C20.1215 3.24477 19.9704 2.4332 19.4862 1.79133ZM4.68737 16.9922C4.68737 17.9614 3.89884 18.75 2.9296 18.75C1.96037 18.75 1.17184 17.9614 1.17184 16.9922C1.17184 16.0229 1.96037 15.2344 2.9296 15.2344C3.89884 15.2344 4.68737 16.0229 4.68737 16.9922ZM13.7987 14.7089L12.9998 12.8233C13.2614 12.8676 13.5283 12.8906 13.7987 12.8906C14.0692 12.8906 14.336 12.8676 14.5976 12.8233L13.7987 14.7089Z" fill="#89804A"/>
</svg>
