<svg width="233" height="306" viewBox="0 0 233 306" fill="none" xmlns="http://www.w3.org/2000/svg">
<path d="M72.2007 270.647C81.2845 284.725 97.6991 291.764 121.381 291.764C145.062 291.764 163.262 284.44 175.979 269.791C188.697 255.143 195.039 232.885 195.039 202.985V8.18029V0H233V8.18029H206.259V199.973C206.259 235.611 198.322 262.182 182.418 279.715C166.545 297.249 138.433 306 98.1453 306C57.8579 306 27.1004 297.661 5.873 281.015C-15.3225 264.338 -25.9363 235.738 -25.9363 195.249V8.18029H-26V0H58.5272V8.18029V209.897C58.5272 236.341 63.085 256.601 72.1688 270.679" fill="#1E1E10" fill-opacity="0.2"/>
</svg>
